<?xml version="1.0" encoding="UTF-8"?>
<svg id="_图层_1" data-name="图层 1" xmlns="http://www.w3.org/2000/svg" xmlns:xlink="http://www.w3.org/1999/xlink" viewBox="0 0 386.1 386.1">
  <defs>
    <style>
      .cls-1 {
        fill: url(#_未命名的渐变_61);
        stroke: url(#_未命名的渐变_67);
        stroke-miterlimit: 10;
      }

      .cls-2 {
        fill: #1296db;
        stroke-width: 0px;
      }
    </style>
    <linearGradient id="_未命名的渐变_61" data-name="未命名的渐变 61" x1="193.05" y1="385.6" x2="193.05" y2=".5" gradientUnits="userSpaceOnUse">
      <stop offset="0" stop-color="#3ddeed" stop-opacity="0"/>
      <stop offset=".09" stop-color="rgba(61, 222, 237, .05)" stop-opacity=".05"/>
      <stop offset=".3" stop-color="rgba(61, 222, 237, .16)" stop-opacity=".16"/>
      <stop offset=".52" stop-color="rgba(61, 222, 237, .24)" stop-opacity=".24"/>
      <stop offset=".74" stop-color="rgba(61, 222, 237, .29)" stop-opacity=".29"/>
      <stop offset="1" stop-color="#3ddeed" stop-opacity=".3"/>
    </linearGradient>
    <linearGradient id="_未命名的渐变_67" data-name="未命名的渐变 67" x1="193.05" y1="386.1" x2="193.05" y2="0" gradientUnits="userSpaceOnUse">
      <stop offset="0" stop-color="#3ddeed" stop-opacity="0"/>
      <stop offset=".81" stop-color="#3ddeed" stop-opacity=".4"/>
    </linearGradient>
  </defs>
  <circle class="cls-1" cx="193.05" cy="193.05" r="192.55"/>
  <g>
    <path class="cls-2" d="M158.09,189.02l.6,16.46c.05.92.2,1.83.45,2.71.89,3.12,3.11,5.79,6.15,7.4,1.87.96,3.96,1.46,6.1,1.47,1.2,0,2.4-.15,3.55-.46l16.44-4.6,16.44,4.6c4.24,1.16,8.82.16,12.04-2.62,2.55-2.2,4.06-5.24,4.2-8.46l.6-16.5,9.55-13.79c.61-.84,1.1-1.75,1.45-2.71,2.25-6.11-1.08-12.78-7.6-15.17l-16.04-5.61-10.65-12.83c-.56-.7-1.21-1.34-1.95-1.89-2.58-2.07-5.99-3.05-9.4-2.71-3.45.35-6.59,2.02-8.65,4.6l-10.64,12.96-16.04,5.61c-1.03.38-2,.88-2.9,1.47-5.62,3.82-7.05,11.01-3.25,16.41l9.55,13.66ZM180.08,163.37l11.3-13.79,11.29,13.79,17.79,6.25-10.59,15.26-.7,17.84-17.79-4.97-17.79,4.83-.7-17.7-10.59-15.13,17.79-6.39ZM180.08,163.37"/>
    <path class="cls-2" d="M291.33,175.69c.11-40.93-29.21-77-71.92-88.48-42.71-11.48-88.52,4.39-112.39,38.93-23.87,34.54-20.04,79.44,9.39,110.14v44.14c0,6.55,3.04,12.79,8.35,17.15,5.3,4.45,12.22,6.89,19.39,6.85,1.84-.02,3.68-.17,5.5-.46l40.88-7.17c.58-.09,1.17-.09,1.75,0l40.83,7.17c1.81.31,3.65.46,5.5.46,12.75.21,23.99-7.67,27.14-19.03.4-1.63.6-3.29.6-4.96v-44.14c16.09-16.72,24.98-38.27,24.99-60.59h0ZM191.38,97.53c46.92,0,84.96,34.99,84.96,78.16s-38.04,78.16-84.96,78.16-84.96-34.99-84.96-78.16c0-20.73,8.95-40.61,24.88-55.27s37.54-22.89,60.08-22.89h0ZM251.35,282.35c-1.93,5.88-8.47,9.39-14.99,8.05l-41.33-7.13c-2.41-.46-4.89-.46-7.3,0l-40.88,7.36c-.9.07-1.8.07-2.7,0-3.41.04-6.71-1.11-9.25-3.22-2.19-1.77-3.47-4.31-3.5-6.99v-31.17c35.45,24.77,84.49,24.77,119.94,0v31.36c.06.58.06,1.16,0,1.75h0ZM251.35,282.35"/>
  </g>
</svg>